<svg width="318" height="57" viewBox="0 0 318 57" fill="none" xmlns="http://www.w3.org/2000/svg">
<path d="M63.5 53.1503C63.5 52.9542 63.5576 52.7625 63.6657 52.599L97.4307 1.50525C97.6158 1.22511 97.9292 1.05659 98.265 1.05659H102.079C102.415 1.05659 102.728 1.22511 102.913 1.50526L136.678 52.599C136.786 52.7625 136.844 52.9542 136.844 53.1503V54.4394C136.844 54.9917 136.396 55.4394 135.844 55.4394H125.159C124.823 55.4394 124.509 55.2702 124.324 54.9892L100.532 18.8484C100.133 18.2416 99.2402 18.2498 98.8519 18.8638L76.0184 54.9738C75.8351 55.2637 75.5161 55.4394 75.1732 55.4394H64.5C63.9477 55.4394 63.5 54.9917 63.5 54.4394V53.1503Z" fill="#8EC9FC"/>
<path d="M150.035 55.1632C149.482 55.1632 149.035 54.7155 149.035 54.1632V2.17462C149.035 1.62234 149.482 1.17462 150.035 1.17462H160.033C160.585 1.17462 161.033 1.62234 161.033 2.17462V54.1632C161.033 54.7155 160.585 55.1632 160.033 55.1632H150.035Z" fill="#8EC9FC"/>
<path d="M174.502 12.3514C174.491 12.4119 174.485 12.4735 174.485 12.5351L174.479 20.6167C174.479 20.6791 174.485 20.7415 174.497 20.8029L175.65 26.9134C175.684 27.091 175.765 27.2561 175.885 27.3914L180.695 32.8147C180.885 33.0287 181.157 33.1512 181.443 33.1512H228.935C229.279 33.1512 229.598 33.3277 229.781 33.6185L231.778 36.7915C231.879 36.951 231.932 37.1357 231.932 37.3241V41.9265C231.932 42.115 231.879 42.2996 231.778 42.4591L229.781 45.6321C229.598 45.923 229.279 46.0994 228.935 46.0994H175.479C174.927 46.0994 174.479 46.5472 174.479 47.0994V51.5478C174.479 51.8726 174.637 52.1772 174.902 52.3646L177.887 54.4723C178.056 54.5915 178.257 54.6555 178.464 54.6555H236.269C236.613 54.6555 236.932 54.479 237.115 54.1881L239.203 50.8717C239.245 50.8048 239.279 50.7331 239.304 50.6581L241.659 43.6651C241.693 43.5622 241.711 43.4545 241.711 43.346V33.9474C241.711 33.7589 241.658 33.5742 241.557 33.4147L237.115 26.3573C236.932 26.0664 236.613 25.8899 236.269 25.8899H187.256C186.912 25.8899 186.592 25.7134 186.409 25.4226L184.412 22.2496C184.312 22.0901 184.259 21.9054 184.259 21.7169V13.3391C184.259 13.0838 184.356 12.8382 184.531 12.6526L186.407 10.6655C186.596 10.4654 186.859 10.352 187.134 10.352H239.488C240.041 10.352 240.488 9.90425 240.488 9.35196V5.06237C240.488 4.8071 240.391 4.5615 240.216 4.37589L237.12 1.09694C236.93 0.895062 236.664 0.781501 236.386 0.783447L181.375 1.16912C181.129 1.17085 180.893 1.26284 180.711 1.42757L175.952 5.73374C175.789 5.88036 175.68 6.07603 175.64 6.29081L174.502 12.3514Z" fill="#8EC9FC"/>
<path d="M253.935 1.7804C253.935 1.22811 254.382 0.780396 254.935 0.780396H316.5C317.052 0.780396 317.5 1.22811 317.5 1.7804V10.139C317.5 10.6913 317.052 11.139 316.5 11.139H254.935C254.383 11.139 253.935 10.6913 253.935 10.139V1.7804Z" fill="#8EC9FC"/>
<path d="M253.935 23.7925C253.935 23.2402 254.382 22.7925 254.935 22.7925H316.5C317.052 22.7925 317.5 23.2402 317.5 23.7925V32.1512C317.5 32.7034 317.052 33.1512 316.5 33.1512H254.935C254.383 33.1512 253.935 32.7034 253.935 32.1512V23.7925Z" fill="#8EC9FC"/>
<path d="M253.935 45.8046C253.935 45.2523 254.382 44.8046 254.935 44.8046H316.5C317.052 44.8046 317.5 45.2523 317.5 45.8046V54.1632C317.5 54.7155 317.052 55.1632 316.5 55.1632H254.935C254.383 55.1632 253.935 54.7155 253.935 54.1632V45.8046Z" fill="#8EC9FC"/>
<path d="M63.5 53.1503C63.5 52.9542 63.5576 52.7625 63.6657 52.599L97.4307 1.50525C97.6158 1.22511 97.9292 1.05659 98.265 1.05659H102.079C102.415 1.05659 102.728 1.22511 102.913 1.50526L136.678 52.599C136.786 52.7625 136.844 52.9542 136.844 53.1503V54.4394C136.844 54.9917 136.396 55.4394 135.844 55.4394H125.159C124.823 55.4394 124.509 55.2702 124.324 54.9892L100.532 18.8484C100.133 18.2416 99.2402 18.2498 98.8519 18.8638L76.0184 54.9738C75.8351 55.2637 75.5161 55.4394 75.1732 55.4394H64.5C63.9477 55.4394 63.5 54.9917 63.5 54.4394V53.1503Z" stroke="#8EC9FC"/>
<path d="M150.035 55.1632C149.482 55.1632 149.035 54.7155 149.035 54.1632V2.17462C149.035 1.62234 149.482 1.17462 150.035 1.17462H160.033C160.585 1.17462 161.033 1.62234 161.033 2.17462V54.1632C161.033 54.7155 160.585 55.1632 160.033 55.1632H150.035Z" stroke="#8EC9FC"/>
<path d="M174.502 12.3514C174.491 12.4119 174.485 12.4735 174.485 12.5351L174.479 20.6167C174.479 20.6791 174.485 20.7415 174.497 20.8029L175.65 26.9134C175.684 27.091 175.765 27.2561 175.885 27.3914L180.695 32.8147C180.885 33.0287 181.157 33.1512 181.443 33.1512H228.935C229.279 33.1512 229.598 33.3277 229.781 33.6185L231.778 36.7915C231.879 36.951 231.932 37.1357 231.932 37.3241V41.9265C231.932 42.115 231.879 42.2996 231.778 42.4591L229.781 45.6321C229.598 45.923 229.279 46.0994 228.935 46.0994H175.479C174.927 46.0994 174.479 46.5472 174.479 47.0994V51.5478C174.479 51.8726 174.637 52.1772 174.902 52.3646L177.887 54.4723C178.056 54.5915 178.257 54.6555 178.464 54.6555H236.269C236.613 54.6555 236.932 54.479 237.115 54.1881L239.203 50.8717C239.245 50.8048 239.279 50.7331 239.304 50.6581L241.659 43.6651C241.693 43.5622 241.711 43.4545 241.711 43.346V33.9474C241.711 33.7589 241.658 33.5742 241.557 33.4147L237.115 26.3573C236.932 26.0664 236.613 25.8899 236.269 25.8899H187.256C186.912 25.8899 186.592 25.7134 186.409 25.4226L184.412 22.2496C184.312 22.0901 184.259 21.9054 184.259 21.7169V13.3391C184.259 13.0838 184.356 12.8382 184.531 12.6526L186.407 10.6655C186.596 10.4654 186.859 10.352 187.134 10.352H239.488C240.041 10.352 240.488 9.90425 240.488 9.35196V5.06237C240.488 4.8071 240.391 4.5615 240.216 4.37589L237.12 1.09694C236.93 0.895062 236.664 0.781501 236.386 0.783447L181.375 1.16912C181.129 1.17085 180.893 1.26284 180.711 1.42757L175.952 5.73374C175.789 5.88036 175.68 6.07603 175.64 6.29081L174.502 12.3514Z" stroke="#8EC9FC"/>
<path d="M253.935 1.7804C253.935 1.22811 254.382 0.780396 254.935 0.780396H316.5C317.052 0.780396 317.5 1.22811 317.5 1.7804V10.139C317.5 10.6913 317.052 11.139 316.5 11.139H254.935C254.383 11.139 253.935 10.6913 253.935 10.139V1.7804Z" stroke="#8EC9FC"/>
<path d="M253.935 23.7925C253.935 23.2402 254.382 22.7925 254.935 22.7925H316.5C317.052 22.7925 317.5 23.2402 317.5 23.7925V32.1512C317.5 32.7034 317.052 33.1512 316.5 33.1512H254.935C254.383 33.1512 253.935 32.7034 253.935 32.1512V23.7925Z" stroke="#8EC9FC"/>
<path d="M253.935 45.8046C253.935 45.2523 254.382 44.8046 254.935 44.8046H316.5C317.052 44.8046 317.5 45.2523 317.5 45.8046V54.1632C317.5 54.7155 317.052 55.1632 316.5 55.1632H254.935C254.383 55.1632 253.935 54.7155 253.935 54.1632V45.8046Z" stroke="#8EC9FC"/>
<path d="M51.6384 11.9835L51.6446 19.9864C51.6446 20.0548 51.6376 20.1231 51.6235 20.1903L50.3591 26.2247C50.3192 26.415 50.2241 26.5911 50.0844 26.7331L44.7956 32.1065C44.5872 32.3182 44.2954 32.4384 43.9899 32.4384H17.395C16.8428 32.4384 16.395 31.9825 16.395 31.42V25.2056C16.395 24.6431 16.8428 24.1871 17.395 24.1871H37.5873C37.957 24.1871 38.3021 24.0115 38.506 23.7194L40.6895 20.593C40.8088 20.4223 40.8724 20.222 40.8724 20.0173V12.8073C40.8724 12.5319 40.7575 12.2678 40.5527 12.0723L38.5025 10.1153C38.2957 9.91784 38.0142 9.80681 37.7206 9.80681H17.395C16.8428 9.80681 16.395 9.35084 16.395 8.78839V1.54148C16.395 0.976548 16.8465 0.519569 17.4012 0.523073L44.0643 0.691545C44.3255 0.693196 44.5776 0.782719 44.7756 0.944135L50.0097 5.21167C50.1965 5.36404 50.3241 5.57139 50.3718 5.80053L51.6176 11.7823C51.6314 11.8485 51.6383 11.9159 51.6384 11.9835Z" fill="#1E2F93"/>
<path d="M0.5 55.3962V1.51842C0.5 0.955963 0.947715 0.5 1.5 0.5H11.6435C12.1975 0.5 12.646 0.958722 12.6435 1.52294L12.5403 25.2306V55.3962C12.5403 55.9724 12.1548 56.4396 11.5464 56.4396H1.60155C0.99318 56.4396 0.5 55.9724 0.5 55.3962Z" fill="#1E2F93"/>
<path d="M43.4078 56.4396C43.1078 56.4396 42.8236 56.3024 42.6337 56.0658L31.0505 37.639C30.5165 36.974 30.9811 35.976 31.8246 35.976H43.4555C43.7344 35.976 43.9994 36.0945 44.1879 36.3009C44.2198 36.3359 44.2459 36.3756 44.2698 36.4165L55.2426 55.2424C55.2665 55.2834 55.2971 55.3489 55.3391 55.3272C55.4437 55.2732 55.5 54.7459 55.5 54.9432V55.4211C55.5 55.9836 55.0523 56.4396 54.5 56.4396H43.4078Z" fill="#1E2F93"/>
<path d="M50.3591 26.2247L49.8698 26.1221V26.1221L50.3591 26.2247ZM50.0844 26.7331L49.728 26.3823V26.3823L50.0844 26.7331ZM50.0097 5.21167L50.3256 4.82415V4.82415L50.0097 5.21167ZM50.3718 5.80053L50.8613 5.69858V5.69858L50.3718 5.80053ZM38.5025 10.1153L38.1573 10.4769V10.4769L38.5025 10.1153ZM40.5527 12.0723L40.898 11.7106V11.7106L40.5527 12.0723ZM40.6895 20.593L40.2796 20.3067V20.3067L40.6895 20.593ZM38.506 23.7194L38.916 24.0057V24.0057L38.506 23.7194ZM44.7956 32.1065L45.1519 32.4573V32.4573L44.7956 32.1065ZM51.6446 19.9864L51.1446 19.9868V19.9868L51.6446 19.9864ZM51.6235 20.1903L52.1129 20.2928V20.2928L51.6235 20.1903ZM51.6384 11.9835L52.1384 11.9831V11.9831L51.6384 11.9835ZM51.6176 11.7823L51.1281 11.8842V11.8842L51.6176 11.7823ZM44.7756 0.944135L44.4596 1.33165V1.33165L44.7756 0.944135ZM44.0643 0.691545L44.0612 1.19154V1.19154L44.0643 0.691545ZM12.5403 25.2306L12.0403 25.2284V25.2306H12.5403ZM42.6337 56.0658L42.2104 56.3319L42.2257 56.3563L42.2438 56.3788L42.6337 56.0658ZM17.4012 0.523073L17.4044 0.0230834L17.4012 0.523073ZM31.0505 37.639L31.4738 37.373L31.4584 37.3485L31.4403 37.326L31.0505 37.639ZM12.6435 1.52294L12.1435 1.52076V1.52076L12.6435 1.52294ZM44.2698 36.4165L43.8378 36.6683L44.2698 36.4165ZM44.1879 36.3009L43.8186 36.638L44.1879 36.3009ZM55.2426 55.2425L55.6746 54.9907L55.2426 55.2425ZM55.3391 55.3272L55.5686 55.7714L55.3391 55.3272ZM51.6384 11.9835L51.1384 11.9838L51.1446 19.9868L51.6446 19.9864L52.1446 19.986L52.1384 11.9831L51.6384 11.9835ZM38.506 23.7194L38.916 24.0057L41.0995 20.8793L40.6895 20.593L40.2796 20.3067L38.0961 23.4331L38.506 23.7194ZM40.8724 20.0173H41.3724V12.8073H40.8724H40.3724V20.0173H40.8724ZM40.5527 12.0723L40.898 11.7106L38.8477 9.75358L38.5025 10.1153L38.1573 10.4769L40.2075 12.434L40.5527 12.0723ZM44.7756 0.944135L44.4596 1.33165L49.6937 5.59919L50.0097 5.21167L50.3256 4.82415L45.0915 0.556616L44.7756 0.944135ZM50.3718 5.80053L49.8823 5.90247L51.1281 11.8842L51.6176 11.7823L52.1071 11.6803L50.8613 5.69858L50.3718 5.80053ZM51.6235 20.1903L51.1341 20.0877L49.8698 26.1221L50.3591 26.2247L50.8485 26.3272L52.1129 20.2928L51.6235 20.1903ZM50.0844 26.7331L49.728 26.3823L44.4392 31.7558L44.7956 32.1065L45.1519 32.4573L50.4407 27.0838L50.0844 26.7331ZM50.3591 26.2247L49.8698 26.1221C49.85 26.2164 49.8022 26.3069 49.728 26.3823L50.0844 26.7331L50.4407 27.0838C50.6459 26.8753 50.7885 26.6137 50.8485 26.3272L50.3591 26.2247ZM50.0097 5.21167L49.6937 5.59919C49.7946 5.68146 49.8587 5.78924 49.8823 5.90247L50.3718 5.80053L50.8613 5.69858C50.7894 5.35354 50.5985 5.04661 50.3256 4.82415L50.0097 5.21167ZM38.5025 10.1153L38.8477 9.75359C38.5452 9.46476 38.139 9.30681 37.7206 9.30681V9.80681V10.3068C37.8895 10.3068 38.0462 10.3709 38.1573 10.4769L38.5025 10.1153ZM40.8724 12.8073H41.3724C41.3724 12.391 41.1985 11.9974 40.898 11.7106L40.5527 12.0723L40.2075 12.434C40.3165 12.5381 40.3724 12.6728 40.3724 12.8073H40.8724ZM40.6895 20.593L41.0995 20.8793C41.2763 20.6262 41.3724 20.3263 41.3724 20.0173H40.8724H40.3724C40.3724 20.1178 40.3413 20.2184 40.2796 20.3067L40.6895 20.593ZM37.5873 24.1871V24.6871C38.113 24.6871 38.6143 24.4376 38.916 24.0057L38.506 23.7194L38.0961 23.4331C37.9898 23.5854 37.801 23.6871 37.5873 23.6871V24.1871ZM43.9899 32.4384V32.9384C44.4251 32.9384 44.8466 32.7675 45.1519 32.4573L44.7956 32.1065L44.4392 31.7558C44.3279 31.869 44.1658 31.9384 43.9899 31.9384V32.4384ZM51.6446 19.9864L51.1446 19.9868C51.1446 20.0206 51.1411 20.0544 51.1341 20.0877L51.6235 20.1903L52.1129 20.2928C52.134 20.1919 52.1447 20.0891 52.1446 19.986L51.6446 19.9864ZM51.6384 11.9835L52.1384 11.9831C52.1383 11.8813 52.1278 11.7799 52.1071 11.6803L51.6176 11.7823L51.1281 11.8842C51.1349 11.9172 51.1384 11.9505 51.1384 11.9838L51.6384 11.9835ZM44.7756 0.944135L45.0915 0.556616C44.803 0.321385 44.4399 0.193908 44.0675 0.191555L44.0643 0.691545L44.0612 1.19154C44.2111 1.19248 44.3522 1.24405 44.4596 1.33165L44.7756 0.944135ZM0.5 55.3962H1V1.51842H0.5H0V55.3962H0.5ZM11.5464 56.4396V55.9396H1.60155V56.4396V56.9396H11.5464V56.4396ZM11.5464 56.4396V56.9396C12.4727 56.9396 13.0403 56.2048 13.0403 55.3962H12.5403H12.0403C12.0403 55.74 11.8368 55.9396 11.5464 55.9396V56.4396ZM0.5 55.3962H0C0 56.2738 0.742932 56.9396 1.60155 56.9396V56.4396V55.9396C1.24343 55.9396 1 55.6711 1 55.3962H0.5ZM11.6435 0.5V0H1.5V0.5V1H11.6435V0.5ZM43.9899 32.4384V31.9384H17.395V32.4384V32.9384H43.9899V32.4384ZM37.5873 24.1871V23.6871H17.395V24.1871V24.6871H37.5873V24.1871ZM16.395 31.42H16.895V25.2056H16.395H15.895V31.42H16.395ZM37.7206 9.80681V9.30681H17.395V9.80681V10.3068H37.7206V9.80681ZM17.4012 0.523073L17.3981 1.02306L44.0612 1.19154L44.0643 0.691545L44.0675 0.191555L17.4044 0.0230834L17.4012 0.523073ZM16.395 8.78839H16.895V1.54148H16.395H15.895V8.78839H16.395ZM42.6337 56.0658L43.057 55.7997L31.4738 37.373L31.0505 37.639L30.6271 37.9051L42.2104 56.3319L42.6337 56.0658ZM31.8246 35.976V36.476H43.4555V35.976V35.476H31.8246V35.976ZM44.2698 36.4165L43.8378 36.6683L54.8107 55.4942L55.2426 55.2425L55.6746 54.9907L44.7017 36.1648L44.2698 36.4165ZM55.5 54.9432H55V55.4211H55.5H56V54.9432H55.5ZM54.5 56.4396V55.9396H43.4078V56.4396V56.9396H54.5V56.4396ZM55.5 55.4211H55C55 55.7161 54.7676 55.9396 54.5 55.9396V56.4396V56.9396C55.337 56.9396 56 56.2511 56 55.4211H55.5ZM55.3391 55.3272L55.5686 55.7714C55.7065 55.7002 55.7781 55.5889 55.8046 55.5448C55.8386 55.4882 55.8619 55.4318 55.8773 55.3903C55.9084 55.3063 55.9309 55.2167 55.9452 55.1568C55.9525 55.1263 55.9596 55.0948 55.9638 55.0763C55.97 55.0497 55.9703 55.0501 55.9676 55.0589C55.9665 55.0626 55.9633 55.0727 55.9581 55.0862C55.9549 55.0944 55.9412 55.13 55.9144 55.1716C55.9014 55.1917 55.8714 55.2355 55.8206 55.2791C55.7717 55.321 55.6589 55.4003 55.4926 55.3992C55.3128 55.398 55.1895 55.3048 55.127 55.2362C55.0702 55.1739 55.0435 55.1125 55.0331 55.0864C55.0112 55.0317 55.005 54.9865 55.0037 54.9778C55.0014 54.9617 55.0006 54.9498 55.0003 54.9457C54.9998 54.9374 55 54.9349 55 54.9432H55.5H56C56 54.9268 55.9998 54.9053 55.9984 54.883C55.9977 54.872 55.9963 54.8544 55.9933 54.8338C55.9914 54.8206 55.9844 54.7721 55.9617 54.7152C55.9508 54.688 55.9236 54.6258 55.8664 54.5629C55.8034 54.4938 55.6796 54.4004 55.4993 54.3992C55.3324 54.3981 55.219 54.4776 55.1695 54.52C55.1181 54.5642 55.0875 54.6087 55.0738 54.6299C55.0457 54.6735 55.0306 54.7121 55.0259 54.7241C55.0192 54.7415 55.0144 54.7565 55.0115 54.7658C54.9986 54.8081 54.9789 54.8979 54.9724 54.9251C54.9595 54.9791 54.9484 55.0191 54.9395 55.043C54.9349 55.0554 54.9367 55.0476 54.9476 55.0294C54.951 55.0237 54.9979 54.9406 55.1097 54.8829L55.3391 55.3272ZM43.4555 35.976V36.476C43.5918 36.476 43.7234 36.5338 43.8186 36.638L44.1879 36.3009L44.5572 35.9639C44.2754 35.6552 43.877 35.476 43.4555 35.476V35.976ZM42.6337 56.0658L42.2438 56.3788C42.5274 56.7321 42.9542 56.9396 43.4078 56.9396V56.4396V55.9396C43.2613 55.9396 43.1198 55.8727 43.0235 55.7528L42.6337 56.0658ZM17.4012 0.523073L17.4044 0.0230834C16.5637 0.0177713 15.895 0.707894 15.895 1.54148H16.395H16.895C16.895 1.2452 17.1294 1.02137 17.3981 1.02306L17.4012 0.523073ZM0.5 1.51842H1C1 1.22346 1.23242 1 1.5 1V0.5V0C0.663007 0 0 0.688465 0 1.51842H0.5ZM17.395 9.80681V9.30681C17.1275 9.30681 16.895 9.08335 16.895 8.78839H16.395H15.895C15.895 9.61834 16.558 10.3068 17.395 10.3068V9.80681ZM17.395 32.4384V31.9384C17.1275 31.9384 16.895 31.715 16.895 31.42H16.395H15.895C15.895 32.25 16.558 32.9384 17.395 32.9384V32.4384ZM31.0505 37.639L31.4403 37.326C31.158 36.9744 31.4184 36.476 31.8246 36.476V35.976V35.476C30.5438 35.476 29.875 36.9737 30.6606 37.9521L31.0505 37.639ZM11.6435 0.5V1C11.9119 1 12.1448 1.22483 12.1435 1.52076L12.6435 1.52294L13.1435 1.52512C13.1471 0.692614 12.4832 0 11.6435 0V0.5ZM17.395 24.1871V23.6871C16.558 23.6871 15.895 24.3756 15.895 25.2056H16.395H16.895C16.895 24.9106 17.1275 24.6871 17.395 24.6871V24.1871ZM12.6435 1.52294L12.1435 1.52076L12.0403 25.2284L12.5403 25.2306L13.0403 25.2327L13.1435 1.52512L12.6435 1.52294ZM12.5403 25.2306H12.0403V55.3962H12.5403H13.0403V25.2306H12.5403ZM44.2698 36.4165L44.7017 36.1648C44.67 36.1104 44.6234 36.0364 44.5572 35.9639L44.1879 36.3009L43.8186 36.638C43.8169 36.6361 43.8178 36.6368 43.8213 36.6419C43.8249 36.6471 43.8302 36.6553 43.8378 36.6683L44.2698 36.4165ZM55.2426 55.2425L54.8107 55.4942C54.8115 55.4956 54.8122 55.497 54.8166 55.5047C54.82 55.5107 54.8257 55.5207 54.8322 55.5317C54.8438 55.5512 54.8677 55.5903 54.9023 55.6312C54.933 55.6675 55.0041 55.7443 55.1211 55.7919C55.2637 55.85 55.4263 55.8449 55.5686 55.7714L55.3391 55.3272L55.1097 54.8829C55.231 54.8203 55.374 54.8152 55.4982 54.8658C55.5969 54.906 55.651 54.9679 55.6658 54.9854C55.6845 55.0075 55.6937 55.024 55.6915 55.0203C55.6912 55.0197 55.6902 55.0181 55.6872 55.0128C55.6852 55.0091 55.6798 54.9995 55.6746 54.9907L55.2426 55.2425Z" fill="#1E2F93"/>
</svg>
